<svg width="4400" height="1422" xmlns="http://www.w3.org/2000/svg" xmlns:xlink="http://www.w3.org/1999/xlink" xml:space="preserve" overflow="hidden"><defs><clipPath id="clip0"><rect x="0" y="1238" width="4400" height="1422"/></clipPath></defs><g clip-path="url(#clip0)" transform="matrix(1 0 0 1 0 -1238)"><rect x="0" y="1238" width="4400" height="1237"/><text fill="#FFFFFF" font-family="Roboto Slab Black,Roboto Slab Black_MSFontService,sans-serif" font-weight="900" font-size="633" transform="matrix(1 0 0 1 1573.69 2073)">RL</text><text fill="#FFFFFF" font-family="Pattaya,Pattaya_MSFontService,sans-serif" font-weight="400" font-size="633" transform="matrix(1 0 0 1 2382.08 2073)">way</text><path d="M548 1634.84C548 1554.85 612.845 1490 692.836 1490L1272.16 1490C1352.15 1490 1417 1554.85 1417 1634.84L1417 2214.16C1417 2294.15 1352.15 2359 1272.16 2359L692.836 2359C612.845 2359 548 2294.15 548 2214.16Z" fill="#FFFFFF" fill-rule="evenodd"/><path d="M749 2023.18C749 1934.38 793.374 1845.59 837.747 1845.59 882.12 1845.59 926.494 1756.79 926.494 1668" stroke="#FFCC28" stroke-width="50.4167" stroke-miterlimit="8" fill="none" fill-rule="evenodd"/><path d="M0 0C88.7941 0 177.588 44.3733 177.588 88.7467 177.588 133.12 266.382 177.493 355.176 177.493" stroke="#9E578A" stroke-width="50.4167" stroke-miterlimit="8" fill="none" fill-rule="evenodd" transform="matrix(1.83697e-16 1 1 -1.83697e-16 749 1825)"/><path d="M749 1713.53C749 1663.27 826.219 1613 903.437 1613" stroke="#D4432A" stroke-width="50.4167" stroke-miterlimit="8" fill="none" fill-rule="evenodd"/><path d="M772 1769C849.219 1769 926.437 1818.22 926.437 1867.45" stroke="#E48FAF" stroke-width="50.4167" stroke-miterlimit="8" fill="none" fill-rule="evenodd"/><path d="M0 0C77.2185 0 154.437 50.2669 154.437 100.534" stroke="#334A7A" stroke-width="50.4167" stroke-miterlimit="8" fill="none" fill-rule="evenodd" transform="matrix(1 0 0 -1 772 2079.53)"/><path d="M0 0C50.2667 0 100.533 77.2185 100.533 154.437" stroke="#448F6B" stroke-width="50.4167" stroke-miterlimit="8" fill="none" fill-rule="evenodd" transform="matrix(1.83697e-16 1 1 -1.83697e-16 749 2135)"/><path d="M0 0C93.6175 0 187.235 101.446 187.235 202.893" stroke="#D4432A" stroke-width="50.4167" stroke-miterlimit="8" fill="none" fill-rule="evenodd" transform="matrix(-1.83697e-16 -1 -1 1.83697e-16 1263.89 1800.23)"/><path d="M0 0 124.173 0.000360892" stroke="#334A7A" stroke-width="50.4167" stroke-miterlimit="8" fill="none" fill-rule="evenodd" transform="matrix(-1 0 0 1 1185.17 1923)"/><path d="M1263.89 2046C1263.89 2140.66 1162.45 2235.32 1061 2235.32" stroke="#448F6B" stroke-width="50.4167" stroke-miterlimit="8" fill="none" fill-rule="evenodd"/><path d="M615 1769C615 1725.37 650.146 1690 693.5 1690 736.854 1690 772 1725.37 772 1769 772 1812.63 736.854 1848 693.5 1848 650.146 1848 615 1812.63 615 1769Z" stroke="#000000" stroke-width="34.375" stroke-miterlimit="8" fill="none" fill-rule="evenodd"/><path d="M615 2079C615 2035.37 650.146 2000 693.5 2000 736.854 2000 772 2035.37 772 2079 772 2122.63 736.854 2158 693.5 2158 650.146 2158 615 2122.63 615 2079Z" stroke="#000000" stroke-width="34.375" stroke-miterlimit="8" fill="none" fill-rule="evenodd"/><path d="M903 1612.5C903 1569.15 938.37 1534 982 1534 1025.63 1534 1061 1569.15 1061 1612.5 1061 1655.85 1025.63 1691 982 1691 938.37 1691 903 1655.85 903 1612.5Z" stroke="#000000" stroke-width="34.375" stroke-miterlimit="8" fill="none" fill-rule="evenodd"/><path d="M903 1923C903 1879.37 938.37 1844 982 1844 1025.63 1844 1061 1879.37 1061 1923 1061 1966.63 1025.63 2002 982 2002 938.37 2002 903 1966.63 903 1923Z" stroke="#000000" stroke-width="34.375" stroke-miterlimit="8" fill="none" fill-rule="evenodd"/><path d="M903 2235.5C903 2192.15 938.37 2157 982 2157 1025.63 2157 1061 2192.15 1061 2235.5 1061 2278.85 1025.63 2314 982 2314 938.37 2314 903 2278.85 903 2235.5Z" stroke="#000000" stroke-width="34.375" stroke-miterlimit="8" fill="none" fill-rule="evenodd"/><path d="M1185 1862.28C1185 1827.89 1212.89 1800 1247.29 1800L1279.71 1800C1314.11 1800 1342 1827.89 1342 1862.28L1342 1983.71C1342 2018.11 1314.11 2046 1279.71 2046L1247.29 2046C1212.89 2046 1185 2018.11 1185 1983.71Z" stroke="#000000" stroke-width="34.375" stroke-miterlimit="8" fill="none" fill-rule="evenodd"/></g></svg>