<svg width="4400" height="1237" xmlns="http://www.w3.org/2000/svg" xmlns:xlink="http://www.w3.org/1999/xlink" xml:space="preserve" overflow="hidden"><defs><clipPath id="clip0"><rect x="0" y="1238" width="4400" height="1237"/></clipPath></defs><g clip-path="url(#clip0)" transform="matrix(1 0 0 1 0 -1238)"><rect x="1417" y="1490" width="2234" height="869" fill="#FFFFFF"/><path d="M3258.78 2106.49 3255.07 2124.71C3251.16 2143.85 3245.7 2157.94 3238.7 2167 3231.5 2176.26 3224.7 2180.89 3218.32 2180.89 3211.53 2180.89 3206.17 2178.63 3202.26 2174.1 3198.76 2170.4 3197.01 2165.77 3197.01 2160.21 3197.01 2148.48 3203.29 2137.88 3215.85 2128.41 3225.32 2121 3239.63 2113.7 3258.78 2106.49ZM2974.76 1792.22C2983.61 1792.22 2990.51 1795.21 2995.45 1801.18 2997.09 1803.65 2998.38 1806.27 2999.31 1809.05 3000.23 1811.83 3000.7 1814.24 3000.7 1816.3L2970.43 1958.93C2966.73 1976.01 2959.31 1989.9 2948.2 2000.6 2943.25 2005.13 2938.16 2008.63 2932.91 2011.1 2927.66 2013.57 2922.66 2014.8 2917.93 2014.8 2913.81 2014.8 2910.1 2014.39 2906.81 2013.57 2903.52 2012.75 2900.53 2010.89 2897.85 2008.01 2890.03 2000.6 2886.12 1986.4 2886.12 1965.41 2886.12 1955.33 2887.05 1944.06 2888.9 1931.61 2890.75 1919.16 2893.53 1906.55 2897.24 1893.79 2905.27 1864.98 2915.46 1841.62 2927.81 1823.71 2934.81 1813.83 2942.28 1806.11 2950.2 1800.56 2958.13 1795 2966.31 1792.22 2974.76 1792.22ZM2955.3 1753.02C2920.91 1753.02 2890.55 1765.67 2864.19 1790.99 2841.34 1813.22 2823.32 1842.44 2810.14 1878.66 2804.38 1894.72 2800 1910.97 2797.02 1927.44 2794.03 1943.9 2792.54 1959.55 2792.54 1974.36 2792.54 2009.35 2801.19 2035.69 2818.48 2053.39 2833.31 2068.42 2852.76 2075.93 2876.85 2075.93 2897.65 2075.93 2916.49 2069.76 2933.37 2057.41 2946.55 2047.94 2959.11 2034.77 2971.05 2017.89 2973.31 2037.03 2979.75 2051.49 2990.35 2061.27 3000.95 2071.04 3015.21 2075.93 3033.13 2075.93 3047.13 2075.93 3060.41 2073.46 3072.97 2068.52 3090.05 2061.73 3105.39 2050.62 3118.98 2035.18 3123 2030.5 3126.86 2025.4 3130.58 2019.88L3130.9 2019.35 3134.32 2033.71C3137.61 2043.33 3142.55 2051.44 3149.14 2058.02 3160.88 2069.96 3176.83 2075.93 3197.01 2075.93 3209.78 2075.93 3221.72 2073.77 3232.84 2069.45 3247.25 2063.89 3260.63 2054.32 3272.99 2040.74L3265.26 2074.7C3235.82 2083.96 3212.66 2094.86 3195.78 2107.42 3173.33 2124.5 3162.11 2144.98 3162.11 2168.85 3162.11 2178.94 3163.97 2187.84 3167.67 2195.56 3171.38 2203.27 3176.52 2209.71 3183.11 2214.85 3189.29 2220 3196.65 2223.85 3205.2 2226.43 3213.74 2229 3222.95 2230.29 3232.84 2230.29 3259.19 2230.29 3281.12 2223.7 3298.62 2210.53 3322.71 2192.42 3338.77 2163.19 3346.8 2122.85L3356.37 2077.16C3380.67 2070.99 3401.05 2060.49 3417.52 2045.68 3439.96 2025.3 3456.85 1996.38 3468.17 1958.93L3441.61 1958.93C3433.38 1985.27 3422.77 2005.54 3409.8 2019.74 3397.86 2032.92 3381.9 2042.79 3361.93 2049.38L3424.62 1756.1 3333.52 1756.1 3289.35 1962.94C3284 1979.2 3277.51 1991.55 3269.9 1999.99 3261.04 2009.87 3251.06 2014.8 3239.94 2014.8 3233.15 2014.8 3228.2 2011.92 3225.12 2006.16 3222.44 2001.43 3221.1 1995.05 3221.1 1987.02 3221.1 1981.46 3221.72 1976.11 3222.95 1970.97L3268.35 1756.1 3177.25 1756.1 3134.32 1958.93 3133.5 1958.93C3128.35 1977.04 3121.76 1991.03 3113.73 2000.91 3104.26 2012.64 3093.76 2018.51 3082.23 2018.51 3064.94 2018.51 3056.29 2009.45 3056.29 1991.34 3056.29 1983.93 3057.21 1977.14 3059.07 1970.97L3104.47 1756.1 3013.36 1756.1 3006.57 1789.75 3006.57 1785.12C3006.57 1775.45 3002.29 1767.68 2993.75 1761.81 2985.2 1755.95 2972.39 1753.02 2955.3 1753.02ZM2750.26 1743.45C2737.29 1743.45 2727.51 1746.58 2720.92 1752.86 2714.33 1759.14 2711.03 1767.42 2711.03 1777.71 2711.03 1786.15 2712.99 1793.35 2716.9 1799.32 2721.02 1806.32 2726.68 1809.82 2733.89 1809.82 2738.01 1809.82 2741.71 1809.3 2745.01 1808.28 2750.15 1807.04 2753.14 1805.5 2753.96 1803.65 2753.96 1815.17 2752.68 1828.39 2750.1 1843.31 2747.53 1858.24 2743.98 1873.52 2739.45 1889.16 2734.71 1905.21 2729 1920.75 2722.31 1935.77 2715.62 1950.8 2708.36 1963.97 2700.53 1975.29 2692.09 1987.64 2683.14 1997.31 2673.67 2004.31 2664.19 2011.31 2654.52 2014.8 2644.63 2014.8 2637.22 2014.8 2631.77 2012.95 2628.27 2009.25 2624.77 2005.54 2623.02 2000.4 2623.02 1993.81 2623.02 1989.28 2624.15 1981.67 2626.41 1970.97L2671.81 1756.1 2580.7 1756.1 2537.78 1958.93C2532.22 1976.83 2525.73 1990.21 2518.32 1999.06 2509.05 2009.56 2498.66 2014.8 2487.13 2014.8 2480.33 2014.8 2475.39 2011.92 2472.3 2006.16 2469.63 2001.43 2468.29 1995.05 2468.29 1987.02 2468.29 1981.46 2468.91 1976.11 2470.14 1970.97L2515.54 1756.1 2424.43 1756.1 2381.5 1958.93C2378.21 1974.57 2376.56 1988.36 2376.56 2000.3 2376.56 2025.61 2383.15 2044.85 2396.33 2058.02 2408.06 2069.96 2424.02 2075.93 2444.2 2075.93 2460.05 2075.93 2474.36 2072.74 2487.13 2066.36 2505.04 2057.72 2520.69 2043.21 2534.07 2022.83 2537.78 2040.53 2546.11 2053.81 2559.09 2062.66 2572.06 2071.5 2588.94 2075.93 2609.74 2075.93 2649.47 2075.93 2684.17 2059.36 2713.81 2026.23 2738.31 1999.27 2757.77 1962.32 2772.18 1915.4 2778.16 1895.64 2782.63 1875.58 2785.62 1855.2 2788.6 1834.82 2790.1 1815.89 2790.1 1798.4 2790.1 1782.55 2787.21 1769.89 2781.45 1760.43 2774.66 1749.11 2764.26 1743.45 2750.26 1743.45ZM1741.08 1705.47 1807.17 1705.47C1828.59 1705.47 1845.06 1711.29 1856.59 1722.92 1868.12 1734.54 1873.88 1749.93 1873.88 1769.07 1873.88 1787.59 1868.22 1801.74 1856.9 1811.52 1845.57 1821.29 1829.41 1826.18 1808.41 1826.18L1741.08 1826.18ZM2026.05 1622.74 2026.05 1686.33 2072.68 1696.21 2072.68 1999.06 2026.05 2008.94 2026.05 2072.23 2373.18 2072.23 2373.18 1926.51 2290.41 1926.51 2287.94 1989.18 2181.08 1989.18 2181.08 1696.21 2237.91 1686.33 2237.91 1622.74 2181.08 1622.74 2072.68 1622.74ZM1586.05 1622.43 1586.05 1686.33 1632.68 1696.21 1632.68 1999.06 1586.05 2008.94 1586.05 2072.23 1787.72 2072.23 1787.72 2008.94 1741.08 1999.06 1741.08 1909.22 1814.84 1910.14 1870.79 2072.23 2001.74 2072.23 2001.74 2009.25 1959.12 1998.44 1912.01 1883.25 1919.06 1878.83C1935.76 1866.88 1949.47 1852.42 1960.2 1835.44 1974.51 1812.8 1981.67 1788.31 1981.67 1761.97 1981.67 1733.36 1974.56 1708.61 1960.36 1687.72 1946.15 1666.83 1925.97 1650.73 1899.82 1639.41 1873.68 1628.09 1842.79 1622.43 1807.17 1622.43ZM0 1238 4400 1238 4400 2475 0 2475Z" fill-rule="evenodd"/><path d="M548 1634.84C548 1554.85 612.845 1490 692.836 1490L1272.16 1490C1352.15 1490 1417 1554.85 1417 1634.84L1417 2214.16C1417 2294.15 1352.15 2359 1272.16 2359L692.836 2359C612.845 2359 548 2294.15 548 2214.16Z" fill="#FFFFFF" fill-rule="evenodd"/><path d="M749 2023.18C749 1934.38 793.374 1845.59 837.747 1845.59 882.12 1845.59 926.494 1756.79 926.494 1668" stroke="#FFCC28" stroke-width="50.4167" stroke-miterlimit="8" fill="none" fill-rule="evenodd"/><path d="M0 0C88.7941 0 177.588 44.3733 177.588 88.7467 177.588 133.12 266.382 177.493 355.176 177.493" stroke="#9E578A" stroke-width="50.4167" stroke-miterlimit="8" fill="none" fill-rule="evenodd" transform="matrix(1.83697e-16 1 1 -1.83697e-16 749 1825)"/><path d="M749 1713.53C749 1663.27 826.219 1613 903.437 1613" stroke="#D4432A" stroke-width="50.4167" stroke-miterlimit="8" fill="none" fill-rule="evenodd"/><path d="M772 1769C849.219 1769 926.437 1818.22 926.437 1867.45" stroke="#E48FAF" stroke-width="50.4167" stroke-miterlimit="8" fill="none" fill-rule="evenodd"/><path d="M0 0C77.2185 0 154.437 50.2669 154.437 100.534" stroke="#334A7A" stroke-width="50.4167" stroke-miterlimit="8" fill="none" fill-rule="evenodd" transform="matrix(1 0 0 -1 772 2079.53)"/><path d="M0 0C50.2667 0 100.533 77.2185 100.533 154.437" stroke="#448F6B" stroke-width="50.4167" stroke-miterlimit="8" fill="none" fill-rule="evenodd" transform="matrix(1.83697e-16 1 1 -1.83697e-16 749 2135)"/><path d="M0 0C93.6175 0 187.235 101.446 187.235 202.893" stroke="#D4432A" stroke-width="50.4167" stroke-miterlimit="8" fill="none" fill-rule="evenodd" transform="matrix(-1.83697e-16 -1 -1 1.83697e-16 1263.89 1800.23)"/><path d="M0 0 124.173 0.000360892" stroke="#334A7A" stroke-width="50.4167" stroke-miterlimit="8" fill="none" fill-rule="evenodd" transform="matrix(-1 0 0 1 1185.17 1923)"/><path d="M1263.89 2046C1263.89 2140.66 1162.45 2235.32 1061 2235.32" stroke="#448F6B" stroke-width="50.4167" stroke-miterlimit="8" fill="none" fill-rule="evenodd"/><path d="M615 1769C615 1725.37 650.146 1690 693.5 1690 736.854 1690 772 1725.37 772 1769 772 1812.63 736.854 1848 693.5 1848 650.146 1848 615 1812.63 615 1769Z" stroke="#000000" stroke-width="34.375" stroke-miterlimit="8" fill="none" fill-rule="evenodd"/><path d="M615 2079C615 2035.37 650.146 2000 693.5 2000 736.854 2000 772 2035.37 772 2079 772 2122.63 736.854 2158 693.5 2158 650.146 2158 615 2122.63 615 2079Z" stroke="#000000" stroke-width="34.375" stroke-miterlimit="8" fill="none" fill-rule="evenodd"/><path d="M903 1612.5C903 1569.15 938.37 1534 982 1534 1025.63 1534 1061 1569.15 1061 1612.5 1061 1655.85 1025.63 1691 982 1691 938.37 1691 903 1655.85 903 1612.5Z" stroke="#000000" stroke-width="34.375" stroke-miterlimit="8" fill="none" fill-rule="evenodd"/><path d="M903 1923C903 1879.37 938.37 1844 982 1844 1025.63 1844 1061 1879.37 1061 1923 1061 1966.63 1025.63 2002 982 2002 938.37 2002 903 1966.63 903 1923Z" stroke="#000000" stroke-width="34.375" stroke-miterlimit="8" fill="none" fill-rule="evenodd"/><path d="M903 2235.5C903 2192.15 938.37 2157 982 2157 1025.63 2157 1061 2192.15 1061 2235.5 1061 2278.85 1025.63 2314 982 2314 938.37 2314 903 2278.85 903 2235.5Z" stroke="#000000" stroke-width="34.375" stroke-miterlimit="8" fill="none" fill-rule="evenodd"/><path d="M1185 1862.28C1185 1827.89 1212.89 1800 1247.29 1800L1279.71 1800C1314.11 1800 1342 1827.89 1342 1862.28L1342 1983.71C1342 2018.11 1314.11 2046 1279.71 2046L1247.29 2046C1212.89 2046 1185 2018.11 1185 1983.71Z" stroke="#000000" stroke-width="34.375" stroke-miterlimit="8" fill="none" fill-rule="evenodd"/></g></svg>